# xmcd
# 
# Track frame offsets:
#     150
#     27683
#     53061
#     83054
#     107871
#     133073
#     157355
#     173438
#     193127
# 
# Disc length: 2813
# 
# Revision: 0
# Processed by: cddbd v1.5.2PL0 Copyright (c) Steve Scherf et al.
# Submitted via: fre:ac v1.0.27
# 
DISCID=7c0afb09
DTITLE=Various Artist - Blues 4 Sale
DYEAR=0
DGENRE=Blues
TTITLE0=Ed Wills - You Gotta Move
TTITLE1=Ed Wills - Blues 4 Sale
TTITLE2=Ed Wills - Looks Like I Was Wrong
TTITLE3=Ed Wills - I'm Coming Home
TTITLE4=Ed Wills - Rain, Rain, Rain
TTITLE5=Ed Wills - Rooster
TTITLE6=Ed Wills - You're the reason why
TTITLE7=Ed Wills - Walkin' Papers
TTITLE8=Ed Wills - Fins Love Again
EXTD=
EXTT0=
EXTT1=
EXTT2=
EXTT3=
EXTT4=
EXTT5=
EXTT6=
EXTT7=
EXTT8=
PLAYORDER=
